<svg width="60" height="42" viewBox="0 0 60 42" fill="none" xmlns="http://www.w3.org/2000/svg">
<g id="Group 30">
<path id="Vector 1" d="M1 4.42857L3.56 1" stroke="#17DBE9" stroke-opacity="0.5" stroke-linecap="round"/>
<path id="Vector 6" d="M1 13.5714L3.56 10.1428" stroke="#17DBE9" stroke-opacity="0.5" stroke-linecap="round"/>
<path id="Vector 16" d="M1 31.8572L3.56 28.4286" stroke="#17DBE9" stroke-opacity="0.5" stroke-linecap="round"/>
<path id="Vector 11" d="M1 22.7143L3.56 19.2858" stroke="#17DBE9" stroke-opacity="0.5" stroke-linecap="round"/>
<path id="Vector 17" d="M1 41L3.56 37.5714" stroke="#17DBE9" stroke-opacity="0.5" stroke-linecap="round"/>
<path id="Vector 2" d="M16.36 4.42857L18.92 1" stroke="#17DBE9" stroke-opacity="0.5" stroke-linecap="round"/>
<path id="Vector 7" d="M16.36 13.5714L18.92 10.1428" stroke="#17DBE9" stroke-opacity="0.5" stroke-linecap="round"/>
<path id="Vector 18" d="M16.36 31.8572L18.92 28.4286" stroke="#17DBE9" stroke-opacity="0.5" stroke-linecap="round"/>
<path id="Vector 12" d="M16.36 22.7143L18.92 19.2858" stroke="#17DBE9" stroke-opacity="0.5" stroke-linecap="round"/>
<path id="Vector 19" d="M16.36 41L18.92 37.5714" stroke="#17DBE9" stroke-opacity="0.5" stroke-linecap="round"/>
<path id="Vector 3" d="M31.72 4.42857L34.28 1" stroke="#17DBE9" stroke-opacity="0.5" stroke-linecap="round"/>
<path id="Vector 8" d="M31.72 13.5714L34.28 10.1428" stroke="#17DBE9" stroke-opacity="0.5" stroke-linecap="round"/>
<path id="Vector 20" d="M31.72 31.8572L34.28 28.4286" stroke="#17DBE9" stroke-opacity="0.5" stroke-linecap="round"/>
<path id="Vector 13" d="M31.72 22.7143L34.28 19.2858" stroke="#17DBE9" stroke-opacity="0.5" stroke-linecap="round"/>
<path id="Vector 21" d="M31.72 41L34.28 37.5714" stroke="#17DBE9" stroke-opacity="0.5" stroke-linecap="round"/>
<path id="Vector 4" d="M51.08 4.42857L53.64 1" stroke="#17DBE9" stroke-opacity="0.5" stroke-linecap="round"/>
<path id="Vector 9" d="M51.08 13.5714L53.64 10.1428" stroke="#17DBE9" stroke-opacity="0.5" stroke-linecap="round"/>
<path id="Vector 22" d="M51.08 31.8572L53.64 28.4286" stroke="#17DBE9" stroke-opacity="0.5" stroke-linecap="round"/>
<path id="Vector 14" d="M51.08 22.7143L53.64 19.2858" stroke="#17DBE9" stroke-opacity="0.5" stroke-linecap="round"/>
<path id="Vector 23" d="M51.08 41L53.64 37.5714" stroke="#17DBE9" stroke-opacity="0.5" stroke-linecap="round"/>
<path id="Vector 5" d="M56.44 4.42857L59 1" stroke="#17DBE9" stroke-opacity="0.5" stroke-linecap="round"/>
<path id="Vector 10" d="M56.44 13.5714L59 10.1428" stroke="#17DBE9" stroke-opacity="0.5" stroke-linecap="round"/>
<path id="Vector 24" d="M56.44 31.8572L59 28.4286" stroke="#17DBE9" stroke-opacity="0.5" stroke-linecap="round"/>
<path id="Vector 15" d="M56.44 22.7143L59 19.2858" stroke="#17DBE9" stroke-opacity="0.5" stroke-linecap="round"/>
<path id="Vector 25" d="M56.44 41L59 37.5714" stroke="#17DBE9" stroke-opacity="0.5" stroke-linecap="round"/>
</g>
</svg>
