<svg width="90" height="54" viewBox="0 0 90 54" fill="none" xmlns="http://www.w3.org/2000/svg">
<g id="logo 1 (Traced)">
<path id="logo 1 (Traced)_2" fill-rule="evenodd" clip-rule="evenodd" d="M67.2961 0.439702C65.168 1.04477 62.6208 2.32956 58.5194 4.86696C55.631 6.65374 54.9504 6.94987 53.7125 6.9583C52.4986 6.96674 52.1799 6.84054 51.6984 6.16019C51.3838 5.71599 51.0522 4.76263 50.9616 4.0423C50.871 3.32165 50.7561 2.77531 50.7065 2.82811C50.5646 2.97929 47.9442 19.1018 47.9442 19.8237C47.9442 20.3644 48.0758 20.4403 48.7505 20.2882C49.4867 20.1223 49.4994 20.097 48.8971 19.9974C48.1136 19.8677 48.1128 19.8553 48.6863 17.182C49.073 15.3793 49.275 14.9929 50.1482 14.3872C50.7053 14.0004 51.3346 13.6843 51.5466 13.6843C51.7585 13.6843 52.0573 13.5569 52.2104 13.4013C52.3634 13.2454 53.1396 13.0274 53.9348 12.9162C54.7297 12.8053 55.4885 12.6432 55.6207 12.556C56.0866 12.2493 55.8518 13.1211 55.0795 14.5658C53.9949 16.595 54.5875 15.8725 56.4438 12.9034C60.0629 7.11418 64.0028 2.96836 67.7359 1.02103C69.9482 -0.13288 69.835 -0.282504 67.2961 0.439702ZM71.5222 1.42805C70.7018 1.74042 69.3571 2.45638 68.534 3.01928C65.7864 4.89758 59.9849 11.9179 57.784 16.0271C57.287 16.9552 57.2873 16.9567 57.8178 16.1908C58.1121 15.7654 58.7214 14.9669 59.1718 14.4165C59.9641 13.4479 60.0157 13.4316 60.7845 13.9036C61.2211 14.1719 61.9849 14.9704 62.4819 15.6779C63.2319 16.7462 63.346 17.1232 63.1545 17.9014C62.8408 19.1777 63.1689 18.6573 65.4908 14.1947C69.972 5.58261 74.522 1.63109 78.1898 3.16609C79.2155 3.59529 79.3192 3.5981 78.9988 3.18671C78.7967 2.92744 78.0664 2.36236 77.3758 1.93128C75.6896 0.878272 73.4673 0.687415 71.5222 1.42805ZM45.7934 4.15913C45.0138 4.38747 44.3028 4.65205 44.2136 4.74733C43.8427 5.14248 41.2956 22.1181 41.6087 22.1068C41.7873 22.1006 42.786 21.8523 43.8284 21.5552L45.7237 21.0151L47.1079 13.0546C47.8694 8.67635 48.501 4.77794 48.5115 4.39122C48.5338 3.56562 47.9823 3.51845 45.7934 4.15913ZM38.7889 9.84244C37.2628 10.2691 37.0959 10.4007 36.9484 11.295C36.859 11.836 36.3503 14.8442 35.8178 17.9795C35.047 22.5207 34.932 23.6803 35.2528 23.6803C35.9882 23.6803 39.441 22.6707 39.441 22.4558C39.441 22.0778 41.4988 10.4206 41.665 9.85775C41.865 9.1799 41.1719 9.17615 38.7889 9.84244ZM32.1128 14.9013C29.9122 15.5158 30.075 15.1993 29.1883 20.5856C28.4902 24.8273 28.45 25.6794 28.9587 25.4714C29.1605 25.3892 30.0978 25.1375 31.042 24.9126C32.2843 24.6164 32.8262 24.325 33.0033 23.8574C33.1379 23.5022 33.5311 21.4546 33.8771 19.307C34.2227 17.1595 34.5696 15.1565 34.6476 14.8557C34.8177 14.1991 34.6133 14.2029 32.1128 14.9013ZM45.5985 23.7106C45.034 23.8633 40.6139 24.9063 35.7759 26.0281C30.9379 27.1498 26.7157 28.2069 26.3931 28.3771C26.0017 28.5836 29.5592 28.6245 37.0953 28.4999C43.3041 28.3974 48.4391 28.255 48.5062 28.1834C48.5734 28.1119 48.0002 28.0535 47.2325 28.0535C46.0834 28.0535 45.8096 27.9432 45.6835 27.4287C45.5991 27.0851 45.4264 26.804 45.2997 26.804C44.9637 26.804 44.4523 25.0763 44.6754 24.6939C44.7798 24.5149 45.5252 24.1529 46.3315 23.8899C47.8905 23.381 47.3252 23.2426 45.5985 23.7106ZM36.1477 30.8833C32.5626 32.8996 34.0453 38.9865 38.1216 38.9865C40.5077 38.9865 42.1054 37.1389 42.0389 34.4571C42.0175 33.5981 41.9418 33.2195 41.8709 33.6162C41.7078 34.524 41.6023 34.4687 40.0556 32.665C38.9511 31.3768 38.8549 31.1575 39.3123 30.9704C39.807 30.7683 39.8046 30.7418 39.273 30.5197C38.3172 30.1208 37.2909 30.2401 36.1477 30.8833ZM50.0312 31.0991C50.1245 31.7282 49.9506 32.0812 49.4835 32.2115C49.2012 32.2899 49.4533 32.3705 50.0438 32.3905C50.8669 32.4183 51.3005 32.6585 51.9025 33.4207C52.8552 34.6268 52.7411 35.9581 51.5932 37.0342C49.2665 39.2155 46.4066 35.8959 48.2661 33.1717L48.881 32.2705L48.1503 33.1086C47.7486 33.5694 47.3709 34.1029 47.3111 34.2938C47.2513 34.4849 46.9077 34.6649 46.547 34.6936C45.7275 34.7595 45.7216 35.2915 46.5215 37.0517C47.9362 40.1651 51.8172 40.3191 53.5281 37.3297C54.6775 35.3212 53.9661 32.3895 52.0767 31.3487C51.1575 30.842 49.9717 30.6974 50.0312 31.0991ZM39.9541 32.9381C41.768 35.0634 39.4803 38.1513 37.0546 36.8521C35.2164 35.8678 35.2833 33.1383 37.1663 32.2711C38.3274 31.7367 39.0833 31.9175 39.9541 32.9381ZM1.03034 44.9216C0.707803 45.2652 0.443913 45.9625 0.443913 46.4713C0.443913 47.4971 1.07021 48.2456 3.01889 49.5485C4.56969 50.5859 4.91949 51.6558 3.97418 52.4714C3.06434 53.2561 2.31284 53.1886 1.42441 52.2421C0.545951 51.3062 -0.35333 51.4152 0.140438 52.398C0.595795 53.3045 1.63611 53.9804 2.57615 53.9804C3.80734 53.9804 5.09952 53.148 5.31973 52.2127C5.64255 50.8424 5.07548 49.8503 3.15172 48.4205C1.23441 46.9955 0.859686 46.1452 1.89062 45.5573C2.73243 45.0775 3.30771 45.1612 3.96245 45.8587C4.73917 46.6862 5.42206 46.6812 5.21798 45.8491C4.8412 44.3144 2.15832 43.7199 1.03034 44.9216ZM7.18778 49.1387C7.18778 53.2342 7.25551 53.9804 7.62759 53.9804C7.97651 53.9804 8.06741 53.5294 8.06741 51.7938V49.6072H10.2665H12.4656V51.7938C12.4656 53.5294 12.5565 53.9804 12.9054 53.9804C13.2775 53.9804 13.3452 53.2342 13.3452 49.1387C13.3452 45.0431 13.2775 44.2969 12.9054 44.2969C12.5562 44.2969 12.4656 44.7495 12.4656 46.4972V48.6976L10.3398 48.6058L8.21402 48.5139L8.12722 46.4054C8.06184 44.8111 7.93664 44.2969 7.61411 44.2969C7.25932 44.2969 7.18778 45.1106 7.18778 49.1387ZM16.8309 44.7654C16.114 45.1803 15.7117 45.9203 15.2408 47.6886C15.1332 48.0938 15.137 49.2108 15.2496 50.1711C15.6326 53.4375 18.1536 54.9497 20.5843 53.3707C22.5881 52.069 22.711 46.5603 20.7726 44.9357C19.8727 44.1816 17.9803 44.0998 16.8309 44.7654ZM23.6076 49.1387C23.6076 53.7721 23.6328 53.9804 24.194 53.9804C24.7204 53.9804 24.7805 53.7721 24.7805 51.95V49.9196H26.1225C27.2147 49.9196 27.624 49.7497 28.3216 49.0065C29.4141 47.8423 29.4478 46.5597 28.4195 45.2581C27.7067 44.3556 27.5369 44.2969 25.634 44.2969H23.6076V49.1387ZM29.7651 49.1387C29.7651 53.7721 29.7903 53.9804 30.3515 53.9804C30.8778 53.9804 30.9379 53.7721 30.9379 51.95V49.9196H32.2409C34.0797 49.9196 35.1763 48.8881 35.1763 47.1592C35.1763 46.2533 34.976 45.667 34.472 45.0953C33.8501 44.3903 33.534 44.2969 31.7665 44.2969H29.7651V49.1387ZM36.8021 49.1387C36.8021 53.7721 36.8273 53.9804 37.3885 53.9804C37.9498 53.9804 37.975 53.7721 37.975 49.1387C37.975 44.5052 37.9498 44.2969 37.3885 44.2969C36.8273 44.2969 36.8021 44.5052 36.8021 49.1387ZM39.7342 49.1387C39.7342 53.1876 39.8046 53.9804 40.1647 53.9804C40.5142 53.9804 40.6109 53.2892 40.6778 50.3101L40.7605 46.6397L43.0622 50.3101C44.3283 52.3286 45.5489 53.9804 45.7744 53.9804C46.1087 53.9804 46.1849 53.0799 46.1849 49.1387C46.1849 45.0897 46.1145 44.2969 45.7545 44.2969C45.4049 44.2969 45.3082 44.9882 45.2413 47.9673L45.1586 51.6377L42.8833 47.9673C41.6322 45.9487 40.4116 44.2969 40.1711 44.2969C39.8029 44.2969 39.7342 45.0569 39.7342 49.1387ZM49.5023 44.906C48.2019 45.7507 47.9442 46.4241 47.9442 48.9775C47.9442 52.497 49.0757 53.9804 51.7606 53.9804C53.7972 53.9804 54.1016 53.6337 54.1016 51.3143V49.2949H52.4889C51.2809 49.2949 50.8763 49.4076 50.8763 49.7447C50.8763 50.0386 51.2566 50.2279 51.9758 50.2913C53.0106 50.3825 53.0806 50.4556 53.1648 51.533C53.2384 52.4742 53.1425 52.7157 52.6262 52.8903C51.6876 53.2076 50.1488 52.8031 49.5322 52.0772C49.144 51.6205 48.9543 50.8155 48.8731 49.2827C48.7631 47.212 48.7942 47.0917 49.6844 46.1433C50.5315 45.2409 50.7341 45.17 52.0714 45.3068C52.8751 45.3893 53.6116 45.3205 53.7081 45.154C54.2722 44.1813 50.922 43.9839 49.5023 44.906ZM57.2466 45.0013C55.7304 46.3083 55.5976 51.2587 57.0349 52.8887C57.9617 53.9395 59.465 54.2016 60.7678 53.5397C61.3342 53.252 61.7266 52.9409 61.6398 52.8484C61.553 52.756 61.2155 52.8322 60.8897 53.018C59.7465 53.67 58.2277 53.4263 57.3043 52.4426C56.5197 51.6067 56.4473 51.344 56.4473 49.3336C56.4473 46.7728 56.8355 45.6716 57.9559 45.0544C58.9929 44.4831 59.7814 44.4915 60.8601 45.0859C61.8084 45.6082 62.0256 45.3899 61.212 44.7317C60.3652 44.0467 58.1813 44.1954 57.2466 45.0013ZM63.2155 49.1387C63.2387 51.8016 63.3747 53.9804 63.5175 53.9804C63.6606 53.9804 63.7776 52.9206 63.7776 51.6255V49.2705L66.3432 49.3608L68.9088 49.451L69.0759 51.7938C69.2005 53.5438 69.2562 52.8784 69.2958 49.1646C69.3248 46.4301 69.2691 44.2775 69.1718 44.3812C69.0747 44.4846 68.9756 45.5273 68.9519 46.6978L68.9088 48.8263H66.4165H63.9242L63.838 46.5616C63.7908 45.3158 63.6216 44.2969 63.4627 44.2969C63.2832 44.2969 63.1894 46.1333 63.2155 49.1387ZM72.1839 49.0181C71.4049 51.6052 70.8264 53.7846 70.8979 53.8608C70.9695 53.937 71.2779 53.2573 71.5835 52.3499L72.1388 50.7005L73.9497 50.6081L75.7608 50.5156L76.2734 52.248C76.5554 53.2008 76.9079 53.9804 77.0571 53.9804C77.2061 53.9804 77.2674 53.8049 77.1932 53.59C77.119 53.3754 76.4343 51.1963 75.6714 48.7482C74.9088 46.3001 74.1306 44.3006 73.9423 44.3053C73.7541 44.31 72.9627 46.4307 72.1839 49.0181ZM78.49 49.2168C78.527 52.7419 78.5894 53.5166 78.71 51.95L78.878 49.7634L79.9435 49.6688C80.9774 49.5766 81.0407 49.6341 82.0763 51.6074C83.0477 53.4575 83.716 54.3534 83.716 53.8055C83.716 53.689 83.2521 52.78 82.685 51.7857L81.6541 49.9777L82.5384 49.0356C83.6863 47.8126 83.7538 46.183 82.7029 45.0638C82.0977 44.4187 81.7019 44.2969 80.2106 44.2969H78.4381L78.49 49.2168ZM86.1349 44.5265L87.5277 44.6436V49.312C87.5277 52.2162 87.6385 53.9804 87.8209 53.9804C88.0033 53.9804 88.1141 52.2159 88.1141 49.3111V44.6421L89.6535 44.5271C90.5 44.464 89.7414 44.4118 87.9675 44.4109C86.1936 44.4103 85.3688 44.4621 86.1349 44.5265ZM82.4097 45.3761C83.3327 46.3592 83.3266 47.5515 82.3939 48.5452C81.7793 49.1999 81.4295 49.3133 80.2681 49.2336L78.878 49.1387L78.7888 47.2994C78.6669 44.782 78.7668 44.6093 80.3481 44.6093C81.382 44.6093 81.8552 44.7854 82.4097 45.3761ZM20.2644 45.9621C21.8237 47.3909 21.439 51.9191 19.6862 52.77C18.7981 53.2008 17.6314 52.924 16.8564 52.0984C16.382 51.593 16.2773 51.0548 16.2773 49.1246C16.2773 47.0386 16.36 46.6794 16.9972 46.0009C17.919 45.0185 19.2179 45.0028 20.2644 45.9621ZM27.7011 45.9178C28.0298 46.2936 28.299 46.8293 28.299 47.1082C28.299 48.0888 27.1751 48.9825 25.9419 48.9825H24.7805V47.1082V45.234H25.9419C26.7591 45.234 27.2804 45.4367 27.7011 45.9178ZM33.8586 45.9178C34.1873 46.2936 34.4564 46.8293 34.4564 47.1082C34.4564 48.0888 33.3326 48.9825 32.0993 48.9825H30.9379V47.1082V45.234H32.0993C32.9165 45.234 33.4378 45.4367 33.8586 45.9178ZM74.8812 47.7155C75.2248 48.8225 75.506 49.8418 75.506 49.9802C75.506 50.1186 74.7663 50.232 73.862 50.232C72.6701 50.232 72.2552 50.1245 72.3531 49.8415C72.4273 49.6269 72.7859 48.4896 73.1501 47.3147C73.5139 46.1399 73.9118 45.2965 74.0341 45.4405C74.1564 45.5845 74.5376 46.6084 74.8812 47.7155Z" fill="url(#paint0_linear_7_276)"/>
</g>
<defs>
<linearGradient id="paint0_linear_7_276" x1="-17.0063" y1="87.3083" x2="105.281" y2="13.3033" gradientUnits="userSpaceOnUse">
<stop stop-color="#5FCA89"/>
<stop offset="1" stop-color="#1F2B92"/>
</linearGradient>
</defs>
</svg>
